<svg xmlns="http://www.w3.org/2000/svg" viewBox="0 0 64 64" fill="none">
  <path
    fill="#8DA399"
    d="M 62 32 L 61.93 41.39 L 61.71 45.25 L 61.35 48.16 L 60.84 50.56 L 60.17 52.6 L 59.36 54.36 L 58.38 55.89 L 57.23 57.23 L 55.89 58.38 L 54.36 59.36 L 52.6 60.17 L 50.56 60.84 L 48.16 61.35 L 45.25 61.71 L 41.39 61.93 L 32 62 L 22.61 61.93 L 18.75 61.71 L 15.84 61.35 L 13.44 60.84 L 11.4 60.17 L 9.64 59.36 L 8.11 58.38 L 6.77 57.23 L 5.62 55.89 L 4.64 54.36 L 3.83 52.6 L 3.16 50.56 L 2.65 48.16 L 2.29 45.25 L 2.07 41.39 L 2 32 L 2.07 22.61 L 2.29 18.75 L 2.65 15.84 L 3.16 13.44 L 3.83 11.4 L 4.64 9.64 L 5.62 8.11 L 6.77 6.77 L 8.11 5.62 L 9.64 4.64 L 11.4 3.83 L 13.44 3.16 L 15.84 2.65 L 18.75 2.29 L 22.61 2.07 L 32 2 L 41.39 2.07 L 45.25 2.29 L 48.16 2.65 L 50.56 3.16 L 52.6 3.83 L 54.36 4.64 L 55.89 5.62 L 57.23 6.77 L 58.38 8.11 L 59.36 9.64 L 60.17 11.4 L 60.84 13.44 L 61.35 15.84 L 61.71 18.75 L 61.93 22.61 Z"
  />
  <g
    transform="translate(5.6 5.6) scale(2.2)"
    stroke="#ffffff"
    strokeWidth="1.5"

  >
    <path d="M7 20h10" />
<path d="M10 20c5.5-2.5.8-6.4 3-10" />
<path d="M9.5 9.4c1.1.8 1.8 2.2 2.3 3.7-2 .4-3.5.4-4.8-.3-1.2-.6-2.3-1.9-3-4.2 2.8-.5 4.4 0 5.5.8z" />
<path d="M14.3 6.2
C12.8 7.8 12.6 9.6 13 10.8
C15.3 10.6 17 9.8 18.2 8.6
C19.4 7.4 20 5.8 20 4
C17.6 4.1 15.8 5 14.3 6.2Z" />
  </g>
</svg>
